<svg width="57" height="57" viewBox="0 0 57 57" fill="none" xmlns="http://www.w3.org/2000/svg">
<path d="M27.3125 42.75L33.25 28.5H29.6875V19L23.75 33.25H27.3125V42.75ZM19 52.25C18.3271 52.25 17.7626 52.022 17.3066 51.566C16.8506 51.11 16.6234 50.5463 16.625 49.875V11.875C16.625 11.2021 16.853 10.6376 17.309 10.1816C17.765 9.72563 18.3287 9.49842 19 9.5H23.75V4.75H33.25V9.5H38C38.6729 9.5 39.2374 9.728 39.6934 10.184C40.1494 10.64 40.3766 11.2037 40.375 11.875V49.875C40.375 50.5479 40.147 51.1124 39.691 51.5684C39.235 52.0244 38.6713 52.2516 38 52.25H19Z" fill="white"/>
</svg>
