<svg width="135" height="36" viewBox="0 0 135 36" fill="none" xmlns="http://www.w3.org/2000/svg">
<rect width="135" height="36" rx="5" fill="#52CCD3"/>
<path d="M26.102 23L21.874 13.2H24.324L28.02 21.88H26.578L30.33 13.2H32.584L28.342 23H26.102ZM33.3713 23V15.468H35.5553V23H33.3713ZM34.4633 14.418C34.0619 14.418 33.7353 14.3013 33.4833 14.068C33.2313 13.8347 33.1053 13.5453 33.1053 13.2C33.1053 12.8547 33.2313 12.5653 33.4833 12.332C33.7353 12.0987 34.0619 11.982 34.4633 11.982C34.8646 11.982 35.1913 12.094 35.4433 12.318C35.6953 12.5327 35.8213 12.8127 35.8213 13.158C35.8213 13.522 35.6953 13.8253 35.4433 14.068C35.2006 14.3013 34.8739 14.418 34.4633 14.418ZM41.3202 23.112C40.4616 23.112 39.7056 22.944 39.0522 22.608C38.4082 22.272 37.9089 21.8147 37.5542 21.236C37.1996 20.648 37.0222 19.9807 37.0222 19.234C37.0222 18.478 37.1949 17.8107 37.5402 17.232C37.8949 16.644 38.3756 16.1867 38.9822 15.86C39.5889 15.524 40.2749 15.356 41.0402 15.356C41.7776 15.356 42.4402 15.5147 43.0282 15.832C43.6256 16.14 44.0969 16.588 44.4422 17.176C44.7876 17.7547 44.9602 18.45 44.9602 19.262C44.9602 19.346 44.9556 19.444 44.9462 19.556C44.9369 19.6587 44.9276 19.7567 44.9182 19.85H38.8002V18.576H43.7702L42.9302 18.954C42.9302 18.562 42.8509 18.2213 42.6922 17.932C42.5336 17.6427 42.3142 17.4187 42.0342 17.26C41.7542 17.092 41.4276 17.008 41.0542 17.008C40.6809 17.008 40.3496 17.092 40.0602 17.26C39.7802 17.4187 39.5609 17.6473 39.4022 17.946C39.2436 18.2353 39.1642 18.5807 39.1642 18.982V19.318C39.1642 19.7287 39.2529 20.0927 39.4302 20.41C39.6169 20.718 39.8736 20.956 40.2002 21.124C40.5362 21.2827 40.9282 21.362 41.3762 21.362C41.7776 21.362 42.1276 21.3013 42.4262 21.18C42.7342 21.0587 43.0142 20.8767 43.2662 20.634L44.4282 21.894C44.0829 22.286 43.6489 22.5893 43.1262 22.804C42.6036 23.0093 42.0016 23.112 41.3202 23.112ZM47.9995 23L45.2835 15.468H47.3415L49.5955 21.95H48.6155L50.9675 15.468H52.8155L55.0975 21.95H54.1175L56.4415 15.468H58.3735L55.6435 23H53.5295L51.5275 17.442H52.1715L50.0995 23H47.9995ZM63.5077 23V13.2H67.9597C69.0237 13.2 69.9617 13.4053 70.7737 13.816C71.5857 14.2173 72.2204 14.782 72.6777 15.51C73.135 16.238 73.3637 17.1013 73.3637 18.1C73.3637 19.0893 73.135 19.9527 72.6777 20.69C72.2204 21.418 71.5857 21.9873 70.7737 22.398C69.9617 22.7993 69.0237 23 67.9597 23H63.5077ZM65.7757 21.138H67.8477C68.501 21.138 69.0657 21.0167 69.5417 20.774C70.027 20.522 70.4004 20.1673 70.6617 19.71C70.9324 19.2527 71.0677 18.716 71.0677 18.1C71.0677 17.4747 70.9324 16.938 70.6617 16.49C70.4004 16.0327 70.027 15.6827 69.5417 15.44C69.0657 15.188 68.501 15.062 67.8477 15.062H65.7757V21.138ZM78.6581 23.112C77.7994 23.112 77.0434 22.944 76.3901 22.608C75.7461 22.272 75.2468 21.8147 74.8921 21.236C74.5374 20.648 74.3601 19.9807 74.3601 19.234C74.3601 18.478 74.5328 17.8107 74.8781 17.232C75.2328 16.644 75.7134 16.1867 76.3201 15.86C76.9268 15.524 77.6128 15.356 78.3781 15.356C79.1154 15.356 79.7781 15.5147 80.3661 15.832C80.9634 16.14 81.4348 16.588 81.7801 17.176C82.1254 17.7547 82.2981 18.45 82.2981 19.262C82.2981 19.346 82.2934 19.444 82.2841 19.556C82.2748 19.6587 82.2654 19.7567 82.2561 19.85H76.1381V18.576H81.1081L80.2681 18.954C80.2681 18.562 80.1888 18.2213 80.0301 17.932C79.8714 17.6427 79.6521 17.4187 79.3721 17.26C79.0921 17.092 78.7654 17.008 78.3921 17.008C78.0188 17.008 77.6874 17.092 77.3981 17.26C77.1181 17.4187 76.8988 17.6473 76.7401 17.946C76.5814 18.2353 76.5021 18.5807 76.5021 18.982V19.318C76.5021 19.7287 76.5908 20.0927 76.7681 20.41C76.9548 20.718 77.2114 20.956 77.5381 21.124C77.8741 21.2827 78.2661 21.362 78.7141 21.362C79.1154 21.362 79.4654 21.3013 79.7641 21.18C80.0721 21.0587 80.3521 20.8767 80.6041 20.634L81.7661 21.894C81.4208 22.286 80.9868 22.5893 80.4641 22.804C79.9414 23.0093 79.3394 23.112 78.6581 23.112ZM86.8321 23.112C85.9455 23.112 85.2548 22.888 84.7601 22.44C84.2655 21.9827 84.0181 21.306 84.0181 20.41V13.802H86.2021V20.382C86.2021 20.6993 86.2861 20.9467 86.4541 21.124C86.6221 21.292 86.8508 21.376 87.1401 21.376C87.4855 21.376 87.7795 21.2827 88.0221 21.096L88.6101 22.636C88.3861 22.7947 88.1155 22.916 87.7981 23C87.4901 23.0747 87.1681 23.112 86.8321 23.112ZM82.8561 17.316V15.636H88.0781V17.316H82.8561ZM94.4561 23V21.53L94.3161 21.208V18.576C94.3161 18.1093 94.1715 17.7453 93.8821 17.484C93.6021 17.2227 93.1681 17.092 92.5801 17.092C92.1788 17.092 91.7821 17.1573 91.3901 17.288C91.0075 17.4093 90.6808 17.5773 90.4101 17.792L89.6261 16.266C90.0368 15.9767 90.5315 15.7527 91.1101 15.594C91.6888 15.4353 92.2768 15.356 92.8741 15.356C94.0221 15.356 94.9135 15.6267 95.5481 16.168C96.1828 16.7093 96.5001 17.554 96.5001 18.702V23H94.4561ZM92.1601 23.112C91.5721 23.112 91.0681 23.014 90.6481 22.818C90.2281 22.6127 89.9061 22.3373 89.6821 21.992C89.4581 21.6467 89.3461 21.2593 89.3461 20.83C89.3461 20.382 89.4535 19.99 89.6681 19.654C89.8921 19.318 90.2421 19.0567 90.7181 18.87C91.1941 18.674 91.8148 18.576 92.5801 18.576H94.5821V19.85H92.8181C92.3048 19.85 91.9501 19.934 91.7541 20.102C91.5675 20.27 91.4741 20.48 91.4741 20.732C91.4741 21.012 91.5815 21.236 91.7961 21.404C92.0201 21.5627 92.3235 21.642 92.7061 21.642C93.0701 21.642 93.3968 21.558 93.6861 21.39C93.9755 21.2127 94.1855 20.956 94.3161 20.62L94.6521 21.628C94.4935 22.1133 94.2041 22.482 93.7841 22.734C93.3641 22.986 92.8228 23.112 92.1601 23.112ZM98.4768 23V15.468H100.661V23H98.4768ZM99.5688 14.418C99.1674 14.418 98.8408 14.3013 98.5888 14.068C98.3368 13.8347 98.2108 13.5453 98.2108 13.2C98.2108 12.8547 98.3368 12.5653 98.5888 12.332C98.8408 12.0987 99.1674 11.982 99.5688 11.982C99.9701 11.982 100.297 12.094 100.549 12.318C100.801 12.5327 100.927 12.8127 100.927 13.158C100.927 13.522 100.801 13.8253 100.549 14.068C100.306 14.3013 99.9794 14.418 99.5688 14.418ZM102.688 23V12.612H104.872V23H102.688ZM109.433 23.112C108.789 23.112 108.168 23.0373 107.571 22.888C106.983 22.7293 106.516 22.5333 106.171 22.3L106.899 20.732C107.244 20.9467 107.65 21.124 108.117 21.264C108.593 21.3947 109.059 21.46 109.517 21.46C110.021 21.46 110.375 21.3993 110.581 21.278C110.795 21.1567 110.903 20.9887 110.903 20.774C110.903 20.5967 110.819 20.466 110.651 20.382C110.492 20.2887 110.277 20.2187 110.007 20.172C109.736 20.1253 109.437 20.0787 109.111 20.032C108.793 19.9853 108.471 19.9247 108.145 19.85C107.818 19.766 107.519 19.6447 107.249 19.486C106.978 19.3273 106.759 19.1127 106.591 18.842C106.432 18.5713 106.353 18.2213 106.353 17.792C106.353 17.316 106.488 16.896 106.759 16.532C107.039 16.168 107.44 15.8833 107.963 15.678C108.485 15.4633 109.111 15.356 109.839 15.356C110.352 15.356 110.875 15.412 111.407 15.524C111.939 15.636 112.382 15.7993 112.737 16.014L112.009 17.568C111.645 17.3533 111.276 17.2087 110.903 17.134C110.539 17.05 110.184 17.008 109.839 17.008C109.353 17.008 108.999 17.0733 108.775 17.204C108.551 17.3347 108.439 17.5027 108.439 17.708C108.439 17.8947 108.518 18.0347 108.677 18.128C108.845 18.2213 109.064 18.296 109.335 18.352C109.605 18.408 109.899 18.4593 110.217 18.506C110.543 18.5433 110.87 18.604 111.197 18.688C111.523 18.772 111.817 18.8933 112.079 19.052C112.349 19.2013 112.569 19.4113 112.737 19.682C112.905 19.9433 112.989 20.2887 112.989 20.718C112.989 21.1847 112.849 21.6 112.569 21.964C112.289 22.3187 111.883 22.5987 111.351 22.804C110.828 23.0093 110.189 23.112 109.433 23.112Z" fill="white"/>
</svg>
