<svg width="365" height="66" viewBox="0 0 365 66" fill="none" xmlns="http://www.w3.org/2000/svg">
<path d="M4.446 63.104C3.64 63.104 2.951 62.9263 2.379 62.571C1.807 62.2157 1.36933 61.7043 1.066 61.037C0.771333 60.361 0.624 59.5377 0.624 58.567C0.624 57.5357 0.806 56.6647 1.17 55.954C1.534 55.2433 2.041 54.706 2.691 54.342C3.341 53.978 4.08633 53.796 4.927 53.796C5.36033 53.796 5.772 53.8393 6.162 53.926C6.56067 54.0127 6.903 54.147 7.189 54.329L6.695 55.343C6.461 55.1783 6.19233 55.0657 5.889 55.005C5.59433 54.9443 5.28233 54.914 4.953 54.914C4.02567 54.914 3.289 55.2043 2.743 55.785C2.197 56.357 1.924 57.2107 1.924 58.346C1.924 58.528 1.93267 58.7447 1.95 58.996C1.96733 59.2473 2.01067 59.4943 2.08 59.737L1.638 59.295C1.768 58.8963 1.97167 58.5627 2.249 58.294C2.535 58.0167 2.873 57.813 3.263 57.683C3.66167 57.5443 4.09067 57.475 4.55 57.475C5.15667 57.475 5.694 57.5877 6.162 57.813C6.63 58.0383 6.99833 58.359 7.267 58.775C7.53567 59.1823 7.67 59.6677 7.67 60.231C7.67 60.8117 7.527 61.3187 7.241 61.752C6.955 62.1853 6.56933 62.519 6.084 62.753C5.59867 62.987 5.05267 63.104 4.446 63.104ZM4.394 62.051C4.79267 62.051 5.13933 61.9773 5.434 61.83C5.73733 61.6827 5.97567 61.479 6.149 61.219C6.32233 60.9503 6.409 60.6383 6.409 60.283C6.409 59.7457 6.22267 59.321 5.85 59.009C5.47733 58.6883 4.97033 58.528 4.329 58.528C3.913 58.528 3.549 58.606 3.237 58.762C2.925 58.918 2.678 59.1303 2.496 59.399C2.32267 59.659 2.236 59.958 2.236 60.296C2.236 60.608 2.31833 60.8983 2.483 61.167C2.64767 61.427 2.89033 61.6393 3.211 61.804C3.53167 61.9687 3.926 62.051 4.394 62.051ZM12.1964 63.104C11.4598 63.104 10.8228 62.9957 10.2854 62.779C9.7481 62.5623 9.3321 62.2547 9.03744 61.856C8.74277 61.4487 8.59544 60.972 8.59544 60.426C8.59544 59.8887 8.7341 59.4337 9.01144 59.061C9.29744 58.6797 9.7091 58.3937 10.2464 58.203C10.7838 58.0037 11.4338 57.904 12.1964 57.904C12.9591 57.904 13.6091 58.0037 14.1464 58.203C14.6924 58.3937 15.1084 58.6797 15.3944 59.061C15.6804 59.4423 15.8234 59.8973 15.8234 60.426C15.8234 60.972 15.6761 61.4487 15.3814 61.856C15.0868 62.2547 14.6664 62.5623 14.1204 62.779C13.5744 62.9957 12.9331 63.104 12.1964 63.104ZM12.1964 62.051C12.9244 62.051 13.4921 61.9037 13.8994 61.609C14.3154 61.3057 14.5234 60.8983 14.5234 60.387C14.5234 59.8843 14.3154 59.49 13.8994 59.204C13.4921 58.9093 12.9244 58.762 12.1964 58.762C11.4771 58.762 10.9138 58.9093 10.5064 59.204C10.0991 59.49 9.89544 59.8843 9.89544 60.387C9.89544 60.8983 10.0991 61.3057 10.5064 61.609C10.9138 61.9037 11.4771 62.051 12.1964 62.051ZM12.1964 58.606C11.5031 58.606 10.9138 58.515 10.4284 58.333C9.9431 58.1423 9.57044 57.8737 9.31044 57.527C9.05044 57.1717 8.92044 56.7513 8.92044 56.266C8.92044 55.7547 9.05477 55.317 9.32344 54.953C9.60077 54.5803 9.98644 54.2943 10.4804 54.095C10.9744 53.8957 11.5464 53.796 12.1964 53.796C12.8551 53.796 13.4314 53.8957 13.9254 54.095C14.4194 54.2943 14.8051 54.5803 15.0824 54.953C15.3598 55.317 15.4984 55.7547 15.4984 56.266C15.4984 56.7513 15.3684 57.1717 15.1084 57.527C14.8484 57.8737 14.4714 58.1423 13.9774 58.333C13.4834 58.515 12.8898 58.606 12.1964 58.606ZM12.1964 57.774C12.8291 57.774 13.3231 57.644 13.6784 57.384C14.0424 57.124 14.2244 56.7687 14.2244 56.318C14.2244 55.8587 14.0381 55.499 13.6654 55.239C13.2928 54.979 12.8031 54.849 12.1964 54.849C11.5898 54.849 11.1044 54.979 10.7404 55.239C10.3851 55.499 10.2074 55.8587 10.2074 56.318C10.2074 56.7687 10.3808 57.124 10.7274 57.384C11.0828 57.644 11.5724 57.774 12.1964 57.774ZM18.8986 60.803L18.8336 59.217L23.9946 53.9H25.4766L21.4856 58.112L20.7576 58.918L18.8986 60.803ZM17.7546 63V53.9H19.0546V63H17.7546ZM24.2026 63L20.4716 58.658L21.3426 57.696L25.7236 63H24.2026ZM35.4084 56.045C35.9631 56.045 36.4528 56.1533 36.8774 56.37C37.3021 56.5867 37.6314 56.916 37.8654 57.358C38.1081 57.8 38.2294 58.359 38.2294 59.035V63H36.9814V59.178C36.9814 58.5107 36.8254 58.008 36.5134 57.67C36.2014 57.332 35.7638 57.163 35.2004 57.163C34.7844 57.163 34.4204 57.2497 34.1084 57.423C33.7964 57.5963 33.5538 57.852 33.3804 58.19C33.2158 58.528 33.1334 58.9483 33.1334 59.451V63H31.8854V59.178C31.8854 58.5107 31.7294 58.008 31.4174 57.67C31.1141 57.332 30.6764 57.163 30.1044 57.163C29.6971 57.163 29.3374 57.2497 29.0254 57.423C28.7134 57.5963 28.4708 57.852 28.2974 58.19C28.1241 58.528 28.0374 58.9483 28.0374 59.451V63H26.7894V56.11H27.9854V57.943L27.7904 57.475C28.0071 57.0243 28.3408 56.6733 28.7914 56.422C29.2421 56.1707 29.7664 56.045 30.3644 56.045C31.0231 56.045 31.5908 56.2097 32.0674 56.539C32.5441 56.8597 32.8561 57.3493 33.0034 58.008L32.4964 57.8C32.7044 57.2713 33.0684 56.8467 33.5884 56.526C34.1084 56.2053 34.7151 56.045 35.4084 56.045ZM38.9788 64.3L43.2688 52.054H44.3998L40.1098 64.3H38.9788ZM48.7751 56.045C49.3384 56.045 49.8324 56.1533 50.2571 56.37C50.6904 56.5867 51.0284 56.916 51.2711 57.358C51.5138 57.8 51.6351 58.359 51.6351 59.035V63H50.3871V59.178C50.3871 58.5107 50.2224 58.008 49.8931 57.67C49.5724 57.332 49.1174 57.163 48.5281 57.163C48.0861 57.163 47.7004 57.2497 47.3711 57.423C47.0418 57.5963 46.7861 57.852 46.6041 58.19C46.4308 58.528 46.3441 58.9483 46.3441 59.451V63H45.0961V53.354H46.3441V57.969L46.0971 57.475C46.3224 57.0243 46.6691 56.6733 47.1371 56.422C47.6051 56.1707 48.1511 56.045 48.7751 56.045Z" fill="white"/>
<path d="M165.891 53.9H167.191V63H165.891V53.9ZM160.665 63H159.365V53.9H160.665V63ZM166.008 58.944H160.535V57.813H166.008V58.944ZM169.915 63V53.9H173.75C174.72 53.9 175.574 54.0907 176.311 54.472C177.056 54.8533 177.632 55.3863 178.04 56.071C178.456 56.7557 178.664 57.5487 178.664 58.45C178.664 59.3513 178.456 60.1443 178.04 60.829C177.632 61.5137 177.056 62.0467 176.311 62.428C175.574 62.8093 174.72 63 173.75 63H169.915ZM171.215 61.869H173.672C174.426 61.869 175.076 61.726 175.622 61.44C176.176 61.154 176.605 60.7553 176.909 60.244C177.212 59.724 177.364 59.126 177.364 58.45C177.364 57.7653 177.212 57.1673 176.909 56.656C176.605 56.1447 176.176 55.746 175.622 55.46C175.076 55.174 174.426 55.031 173.672 55.031H171.215V61.869ZM186.967 63.078C186.265 63.078 185.637 62.9263 185.082 62.623C184.536 62.3197 184.107 61.9037 183.795 61.375C183.483 60.8463 183.327 60.2397 183.327 59.555C183.327 58.8703 183.483 58.2637 183.795 57.735C184.107 57.2063 184.536 56.7947 185.082 56.5C185.637 56.1967 186.265 56.045 186.967 56.045C187.591 56.045 188.146 56.1707 188.631 56.422C189.125 56.6647 189.507 57.0287 189.775 57.514L188.826 58.125C188.601 57.787 188.324 57.54 187.994 57.384C187.674 57.2193 187.327 57.137 186.954 57.137C186.504 57.137 186.101 57.2367 185.745 57.436C185.39 57.6353 185.108 57.917 184.9 58.281C184.692 58.6363 184.588 59.061 184.588 59.555C184.588 60.049 184.692 60.478 184.9 60.842C185.108 61.206 185.39 61.4877 185.745 61.687C186.101 61.8863 186.504 61.986 186.954 61.986C187.327 61.986 187.674 61.908 187.994 61.752C188.324 61.5873 188.601 61.336 188.826 60.998L189.775 61.596C189.507 62.0727 189.125 62.441 188.631 62.701C188.146 62.9523 187.591 63.078 186.967 63.078ZM195.668 63V61.544L195.603 61.271V58.788C195.603 58.2593 195.447 57.852 195.135 57.566C194.832 57.2713 194.372 57.124 193.757 57.124C193.35 57.124 192.951 57.1933 192.561 57.332C192.171 57.462 191.842 57.6397 191.573 57.865L191.053 56.929C191.408 56.643 191.833 56.4263 192.327 56.279C192.83 56.123 193.354 56.045 193.9 56.045C194.845 56.045 195.573 56.2747 196.084 56.734C196.595 57.1933 196.851 57.8953 196.851 58.84V63H195.668ZM193.406 63.078C192.895 63.078 192.444 62.9913 192.054 62.818C191.673 62.6447 191.378 62.4063 191.17 62.103C190.962 61.791 190.858 61.44 190.858 61.05C190.858 60.6773 190.945 60.3393 191.118 60.036C191.3 59.7327 191.59 59.49 191.989 59.308C192.396 59.126 192.942 59.035 193.627 59.035H195.811V59.932H193.679C193.055 59.932 192.635 60.036 192.418 60.244C192.201 60.452 192.093 60.7033 192.093 60.998C192.093 61.336 192.227 61.609 192.496 61.817C192.765 62.0163 193.137 62.116 193.614 62.116C194.082 62.116 194.489 62.012 194.836 61.804C195.191 61.596 195.447 61.2927 195.603 60.894L195.85 61.752C195.685 62.1593 195.395 62.4843 194.979 62.727C194.563 62.961 194.039 63.078 193.406 63.078ZM207.78 56.045C208.334 56.045 208.824 56.1533 209.249 56.37C209.673 56.5867 210.003 56.916 210.237 57.358C210.479 57.8 210.601 58.359 210.601 59.035V63H209.353V59.178C209.353 58.5107 209.197 58.008 208.885 57.67C208.573 57.332 208.135 57.163 207.572 57.163C207.156 57.163 206.792 57.2497 206.48 57.423C206.168 57.5963 205.925 57.852 205.752 58.19C205.587 58.528 205.505 58.9483 205.505 59.451V63H204.257V59.178C204.257 58.5107 204.101 58.008 203.789 57.67C203.485 57.332 203.048 57.163 202.476 57.163C202.068 57.163 201.709 57.2497 201.397 57.423C201.085 57.5963 200.842 57.852 200.669 58.19C200.495 58.528 200.409 58.9483 200.409 59.451V63H199.161V56.11H200.357V57.943L200.162 57.475C200.378 57.0243 200.712 56.6733 201.163 56.422C201.613 56.1707 202.138 56.045 202.736 56.045C203.394 56.045 203.962 56.2097 204.439 56.539C204.915 56.8597 205.227 57.3493 205.375 58.008L204.868 57.8C205.076 57.2713 205.44 56.8467 205.96 56.526C206.48 56.2053 207.086 56.045 207.78 56.045ZM215.965 63.078C215.228 63.078 214.578 62.9263 214.015 62.623C213.46 62.3197 213.027 61.9037 212.715 61.375C212.412 60.8463 212.26 60.2397 212.26 59.555C212.26 58.8703 212.407 58.2637 212.702 57.735C213.005 57.2063 213.417 56.7947 213.937 56.5C214.466 56.1967 215.059 56.045 215.718 56.045C216.385 56.045 216.975 56.1923 217.486 56.487C217.997 56.7817 218.396 57.1977 218.682 57.735C218.977 58.2637 219.124 58.8833 219.124 59.594C219.124 59.646 219.12 59.7067 219.111 59.776C219.111 59.8453 219.107 59.9103 219.098 59.971H213.235V59.074H218.448L217.941 59.386C217.95 58.944 217.859 58.5497 217.668 58.203C217.477 57.8563 217.213 57.5877 216.875 57.397C216.546 57.1977 216.16 57.098 215.718 57.098C215.285 57.098 214.899 57.1977 214.561 57.397C214.223 57.5877 213.959 57.8607 213.768 58.216C213.577 58.5627 213.482 58.9613 213.482 59.412V59.62C213.482 60.0793 213.586 60.491 213.794 60.855C214.011 61.2103 214.31 61.4877 214.691 61.687C215.072 61.8863 215.51 61.986 216.004 61.986C216.411 61.986 216.78 61.9167 217.109 61.778C217.447 61.6393 217.742 61.4313 217.993 61.154L218.682 61.96C218.37 62.324 217.98 62.6013 217.512 62.792C217.053 62.9827 216.537 63.078 215.965 63.078ZM220.857 63V56.11H222.053V57.982L221.936 57.514C222.126 57.0373 222.447 56.6733 222.898 56.422C223.348 56.1707 223.903 56.045 224.562 56.045V57.254C224.51 57.2453 224.458 57.241 224.406 57.241C224.362 57.241 224.319 57.241 224.276 57.241C223.608 57.241 223.08 57.4403 222.69 57.839C222.3 58.2377 222.105 58.814 222.105 59.568V63H220.857ZM229.869 63V61.544L229.804 61.271V58.788C229.804 58.2593 229.648 57.852 229.336 57.566C229.033 57.2713 228.574 57.124 227.958 57.124C227.551 57.124 227.152 57.1933 226.762 57.332C226.372 57.462 226.043 57.6397 225.774 57.865L225.254 56.929C225.61 56.643 226.034 56.4263 226.528 56.279C227.031 56.123 227.555 56.045 228.101 56.045C229.046 56.045 229.774 56.2747 230.285 56.734C230.797 57.1933 231.052 57.8953 231.052 58.84V63H229.869ZM227.607 63.078C227.096 63.078 226.645 62.9913 226.255 62.818C225.874 62.6447 225.579 62.4063 225.371 62.103C225.163 61.791 225.059 61.44 225.059 61.05C225.059 60.6773 225.146 60.3393 225.319 60.036C225.501 59.7327 225.792 59.49 226.19 59.308C226.598 59.126 227.144 59.035 227.828 59.035H230.012V59.932H227.88C227.256 59.932 226.836 60.036 226.619 60.244C226.403 60.452 226.294 60.7033 226.294 60.998C226.294 61.336 226.429 61.609 226.697 61.817C226.966 62.0163 227.339 62.116 227.815 62.116C228.283 62.116 228.691 62.012 229.037 61.804C229.393 61.596 229.648 61.2927 229.804 60.894L230.051 61.752C229.887 62.1593 229.596 62.4843 229.18 62.727C228.764 62.961 228.24 63.078 227.607 63.078Z" fill="white"/>
<path d="M340.494 60.764V59.854L345.148 53.9H346.552L341.937 59.854L341.274 59.646H348.541V60.764H340.494ZM345.551 63V60.764L345.59 59.646V57.67H346.812V63H345.551ZM350.893 61.336L350.919 59.737L354.884 56.11H356.392L353.35 59.1L352.674 59.672L350.893 61.336ZM349.879 63V53.354H351.127V63H349.879ZM355.144 63L352.44 59.646L353.246 58.645L356.678 63H355.144Z" fill="white"/>
<path d="M19.9061 7.62529C21.5149 6.27422 23.5008 5.4515 25.5938 5.26904V7.34375C25.5938 7.5841 25.6892 7.81461 25.8592 7.98456C26.0291 8.15452 26.2597 8.25 26.5 8.25C26.7404 8.25 26.9709 8.15452 27.1408 7.98456C27.3108 7.81461 27.4063 7.5841 27.4063 7.34375V5.26904C29.8594 5.48693 32.1526 6.57883 33.8682 8.34583C35.5837 10.1128 36.6074 12.4373 36.7527 14.8958H34.6563C34.4159 14.8958 34.1854 14.9913 34.0154 15.1613C33.8455 15.3312 33.75 15.5617 33.75 15.8021C33.75 16.0424 33.8455 16.2729 34.0154 16.4429C34.1854 16.6129 34.4159 16.7083 34.6563 16.7083H36.7032C36.389 19.502 34.9837 21.8413 32.8752 23.5572C32.6887 23.7091 32.5701 23.9288 32.5457 24.1681C32.5212 24.4074 32.5928 24.6467 32.7447 24.8332C32.8966 25.0197 33.1163 25.1382 33.3556 25.1627C33.5949 25.1872 33.8342 25.1156 34.0207 24.9637C36.7104 22.773 38.4553 19.6542 38.5761 15.9193C38.5841 15.8568 38.5858 15.7936 38.5809 15.7308L38.5833 15.5C38.5833 8.82637 33.1736 3.41666 26.5 3.41666C19.8264 3.41666 14.4167 8.82637 14.4167 15.5C14.4167 19.4295 16.257 22.6944 18.9721 24.9564C19.1574 25.1035 19.3929 25.1722 19.6283 25.148C19.8636 25.1237 20.0801 25.0084 20.2316 24.8267C20.383 24.6449 20.4574 24.4111 20.4388 24.1753C20.4202 23.9394 20.3102 23.7202 20.1321 23.5644C18.0658 21.8413 16.6243 19.496 16.2993 16.7083H18.3438C18.5841 16.7083 18.8146 16.6129 18.9846 16.4429C19.1545 16.2729 19.25 16.0424 19.25 15.8021C19.25 15.5617 19.1545 15.3312 18.9846 15.1613C18.8146 14.9913 18.5841 14.8958 18.3438 14.8958H16.2461C16.379 12.6217 17.2502 10.5458 18.6253 8.90612L20.12 10.4008C20.2918 10.5609 20.519 10.6481 20.7538 10.6439C20.9886 10.6398 21.2126 10.5447 21.3786 10.3786C21.5447 10.2126 21.6398 9.98858 21.6439 9.7538C21.6481 9.51901 21.5609 9.29179 21.4008 9.12L19.9061 7.62529ZM32.2517 9.01608C32.1112 8.90794 31.9382 8.85081 31.7609 8.85411C31.5837 8.8574 31.4129 8.92092 31.2765 9.03421L31.0131 9.25533C30.0631 10.0532 29.1161 10.8547 28.1723 11.6599C27.3797 12.3366 26.5689 13.0374 25.9212 13.609C25.6408 13.8554 25.3632 14.1052 25.0887 14.3581C24.9095 14.5186 24.74 14.6897 24.5812 14.8705C24.3938 15.1012 24.2546 15.3672 24.1719 15.6527C24.0893 15.9382 24.0648 16.2374 24.1 16.5325C24.1351 16.8277 24.2292 17.1128 24.3766 17.3709C24.5241 17.629 24.7218 17.8548 24.9582 18.0351C25.4395 18.4062 26.0466 18.5752 26.6505 18.5062C27.2544 18.4372 27.8077 18.1355 28.1929 17.6653C28.2992 17.5348 28.4406 17.3077 28.5856 17.0648C28.7403 16.805 28.93 16.4727 29.1402 16.1005C29.5595 15.3514 30.0682 14.4185 30.56 13.5087C31.1441 12.4248 31.7237 11.3385 32.2988 10.2498L32.4571 9.94891C32.5384 9.79419 32.5624 9.61568 32.5248 9.44496C32.4872 9.27425 32.3905 9.12233 32.2517 9.01608Z" fill="#A3A3A3"/>
<path d="M203.156 7.87109H199.039L198.058 5.12227C197.99 4.93417 197.866 4.77158 197.703 4.65671C197.539 4.54184 197.344 4.48029 197.144 4.48047H187.856C187.447 4.48047 187.081 4.73779 186.945 5.12227L185.961 7.87109H181.844C180.506 7.87109 179.422 8.95488 179.422 10.293V24.0977C179.422 25.4357 180.506 26.5195 181.844 26.5195H203.156C204.494 26.5195 205.578 25.4357 205.578 24.0977V10.293C205.578 8.95488 204.494 7.87109 203.156 7.87109ZM192.5 21.6758C189.824 21.6758 187.656 19.5082 187.656 16.832C187.656 14.1559 189.824 11.9883 192.5 11.9883C195.176 11.9883 197.344 14.1559 197.344 16.832C197.344 19.5082 195.176 21.6758 192.5 21.6758ZM189.594 16.832C189.594 17.6028 189.9 18.342 190.445 18.8871C190.99 19.4321 191.729 19.7383 192.5 19.7383C193.271 19.7383 194.01 19.4321 194.555 18.8871C195.1 18.342 195.406 17.6028 195.406 16.832C195.406 16.0612 195.1 15.322 194.555 14.777C194.01 14.232 193.271 13.9258 192.5 13.9258C191.729 13.9258 190.99 14.232 190.445 14.777C189.9 15.322 189.594 16.0612 189.594 16.832Z" fill="#A3A3A3"/>
<path d="M361.828 9.56123L358.203 11.6484V7.34375C358.203 6.34404 357.39 5.53125 356.391 5.53125H339.625C338.625 5.53125 337.812 6.34404 337.812 7.34375V23.6562C337.812 24.656 338.625 25.4688 339.625 25.4688H356.391C357.39 25.4688 358.203 24.656 358.203 23.6562V19.3516L361.828 21.4388C362.431 21.7871 363.188 21.351 363.188 20.6571V10.3457C363.188 9.64902 362.431 9.21289 361.828 9.56123ZM345.289 10.9688C345.289 11.0934 345.187 11.1953 345.062 11.1953H341.891C341.766 11.1953 341.664 11.0934 341.664 10.9688V9.60938C341.664 9.48477 341.766 9.38281 341.891 9.38281H345.062C345.187 9.38281 345.289 9.48477 345.289 9.60938V10.9688ZM361.148 18.7002L358.203 17.0066V13.9962L361.148 12.2998V18.7002Z" fill="#A3A3A3"/>
</svg>
