<svg width="135" height="36" viewBox="0 0 135 36" fill="none" xmlns="http://www.w3.org/2000/svg">
<rect x="0.5" y="0.5" width="134" height="35" rx="4.5" stroke="white"/>
<path d="M26.162 23V13.2H28.43V21.152H33.344V23H26.162ZM38.1542 23.112C37.2955 23.112 36.5395 22.944 35.8862 22.608C35.2422 22.272 34.7429 21.8147 34.3882 21.236C34.0335 20.648 33.8562 19.9807 33.8562 19.234C33.8562 18.478 34.0289 17.8107 34.3742 17.232C34.7289 16.644 35.2095 16.1867 35.8162 15.86C36.4229 15.524 37.1089 15.356 37.8742 15.356C38.6115 15.356 39.2742 15.5147 39.8622 15.832C40.4595 16.14 40.9309 16.588 41.2762 17.176C41.6215 17.7547 41.7942 18.45 41.7942 19.262C41.7942 19.346 41.7895 19.444 41.7802 19.556C41.7709 19.6587 41.7615 19.7567 41.7522 19.85H35.6342V18.576H40.6042L39.7642 18.954C39.7642 18.562 39.6849 18.2213 39.5262 17.932C39.3675 17.6427 39.1482 17.4187 38.8682 17.26C38.5882 17.092 38.2615 17.008 37.8882 17.008C37.5149 17.008 37.1835 17.092 36.8942 17.26C36.6142 17.4187 36.3949 17.6473 36.2362 17.946C36.0775 18.2353 35.9982 18.5807 35.9982 18.982V19.318C35.9982 19.7287 36.0869 20.0927 36.2642 20.41C36.4509 20.718 36.7075 20.956 37.0342 21.124C37.3702 21.2827 37.7622 21.362 38.2102 21.362C38.6115 21.362 38.9615 21.3013 39.2602 21.18C39.5682 21.0587 39.8482 20.8767 40.1002 20.634L41.2622 21.894C40.9169 22.286 40.4829 22.5893 39.9602 22.804C39.4375 23.0093 38.8355 23.112 38.1542 23.112ZM47.6632 23V21.53L47.5232 21.208V18.576C47.5232 18.1093 47.3785 17.7453 47.0892 17.484C46.8092 17.2227 46.3752 17.092 45.7872 17.092C45.3858 17.092 44.9892 17.1573 44.5972 17.288C44.2145 17.4093 43.8878 17.5773 43.6172 17.792L42.8332 16.266C43.2438 15.9767 43.7385 15.7527 44.3172 15.594C44.8958 15.4353 45.4838 15.356 46.0812 15.356C47.2292 15.356 48.1205 15.6267 48.7552 16.168C49.3898 16.7093 49.7072 17.554 49.7072 18.702V23H47.6632ZM45.3672 23.112C44.7792 23.112 44.2752 23.014 43.8552 22.818C43.4352 22.6127 43.1132 22.3373 42.8892 21.992C42.6652 21.6467 42.5532 21.2593 42.5532 20.83C42.5532 20.382 42.6605 19.99 42.8752 19.654C43.0992 19.318 43.4492 19.0567 43.9252 18.87C44.4012 18.674 45.0218 18.576 45.7872 18.576H47.7892V19.85H46.0252C45.5118 19.85 45.1572 19.934 44.9612 20.102C44.7745 20.27 44.6812 20.48 44.6812 20.732C44.6812 21.012 44.7885 21.236 45.0032 21.404C45.2272 21.5627 45.5305 21.642 45.9132 21.642C46.2772 21.642 46.6038 21.558 46.8932 21.39C47.1825 21.2127 47.3925 20.956 47.5232 20.62L47.8592 21.628C47.7005 22.1133 47.4112 22.482 46.9912 22.734C46.5712 22.986 46.0298 23.112 45.3672 23.112ZM51.6838 23V15.468H53.7698V17.596L53.4758 16.98C53.6998 16.448 54.0591 16.0467 54.5538 15.776C55.0484 15.496 55.6504 15.356 56.3598 15.356V17.372C56.2664 17.3627 56.1824 17.358 56.1078 17.358C56.0331 17.3487 55.9538 17.344 55.8698 17.344C55.2724 17.344 54.7871 17.5167 54.4138 17.862C54.0498 18.198 53.8678 18.7253 53.8678 19.444V23H51.6838ZM62.2501 15.356C62.8474 15.356 63.3794 15.4773 63.8461 15.72C64.3221 15.9533 64.6954 16.3173 64.9661 16.812C65.2367 17.2973 65.3721 17.9227 65.3721 18.688V23H63.1881V19.024C63.1881 18.4173 63.0527 17.9693 62.7821 17.68C62.5207 17.3907 62.1474 17.246 61.6621 17.246C61.3167 17.246 61.0041 17.3207 60.7241 17.47C60.4534 17.61 60.2387 17.8293 60.0801 18.128C59.9307 18.4267 59.8561 18.8093 59.8561 19.276V23H57.6721V15.468H59.7581V17.554L59.3661 16.924C59.6367 16.42 60.0241 16.0327 60.5281 15.762C61.0321 15.4913 61.6061 15.356 62.2501 15.356ZM80.9626 15.356C81.5599 15.356 82.0873 15.4773 82.5446 15.72C83.0113 15.9533 83.3753 16.3173 83.6366 16.812C83.9073 17.2973 84.0426 17.9227 84.0426 18.688V23H81.8586V19.024C81.8586 18.4173 81.7326 17.9693 81.4806 17.68C81.2286 17.3907 80.8739 17.246 80.4166 17.246C80.0993 17.246 79.8146 17.3207 79.5626 17.47C79.3106 17.61 79.1146 17.8247 78.9746 18.114C78.8346 18.4033 78.7646 18.772 78.7646 19.22V23H76.5806V19.024C76.5806 18.4173 76.4546 17.9693 76.2026 17.68C75.9599 17.3907 75.6099 17.246 75.1526 17.246C74.8353 17.246 74.5506 17.3207 74.2986 17.47C74.0466 17.61 73.8506 17.8247 73.7106 18.114C73.5706 18.4033 73.5006 18.772 73.5006 19.22V23H71.3166V15.468H73.4026V17.526L73.0106 16.924C73.2719 16.4107 73.6406 16.0233 74.1166 15.762C74.6019 15.4913 75.1526 15.356 75.7686 15.356C76.4593 15.356 77.0613 15.5333 77.5746 15.888C78.0973 16.2333 78.4426 16.7653 78.6106 17.484L77.8406 17.274C78.0926 16.686 78.4939 16.2193 79.0446 15.874C79.6046 15.5287 80.2439 15.356 80.9626 15.356ZM89.6389 23.112C88.8362 23.112 88.1222 22.944 87.4969 22.608C86.8809 22.272 86.3909 21.8147 86.0269 21.236C85.6722 20.648 85.4949 19.9807 85.4949 19.234C85.4949 18.478 85.6722 17.8107 86.0269 17.232C86.3909 16.644 86.8809 16.1867 87.4969 15.86C88.1222 15.524 88.8362 15.356 89.6389 15.356C90.4322 15.356 91.1415 15.524 91.7669 15.86C92.3922 16.1867 92.8822 16.6393 93.2369 17.218C93.5915 17.7967 93.7689 18.4687 93.7689 19.234C93.7689 19.9807 93.5915 20.648 93.2369 21.236C92.8822 21.8147 92.3922 22.272 91.7669 22.608C91.1415 22.944 90.4322 23.112 89.6389 23.112ZM89.6389 21.32C90.0029 21.32 90.3295 21.236 90.6189 21.068C90.9082 20.9 91.1369 20.662 91.3049 20.354C91.4729 20.0367 91.5569 19.6633 91.5569 19.234C91.5569 18.7953 91.4729 18.422 91.3049 18.114C91.1369 17.806 90.9082 17.568 90.6189 17.4C90.3295 17.232 90.0029 17.148 89.6389 17.148C89.2749 17.148 88.9482 17.232 88.6589 17.4C88.3695 17.568 88.1362 17.806 87.9589 18.114C87.7909 18.422 87.7069 18.7953 87.7069 19.234C87.7069 19.6633 87.7909 20.0367 87.9589 20.354C88.1362 20.662 88.3695 20.9 88.6589 21.068C88.9482 21.236 89.2749 21.32 89.6389 21.32ZM95.2287 23V15.468H97.3147V17.596L97.0207 16.98C97.2447 16.448 97.604 16.0467 98.0987 15.776C98.5934 15.496 99.1954 15.356 99.9047 15.356V17.372C99.8114 17.3627 99.7274 17.358 99.6527 17.358C99.578 17.3487 99.4987 17.344 99.4147 17.344C98.8174 17.344 98.332 17.5167 97.9587 17.862C97.5947 18.198 97.4127 18.7253 97.4127 19.444V23H95.2287ZM104.887 23.112C104.028 23.112 103.272 22.944 102.619 22.608C101.975 22.272 101.475 21.8147 101.121 21.236C100.766 20.648 100.589 19.9807 100.589 19.234C100.589 18.478 100.761 17.8107 101.107 17.232C101.461 16.644 101.942 16.1867 102.549 15.86C103.155 15.524 103.841 15.356 104.607 15.356C105.344 15.356 106.007 15.5147 106.595 15.832C107.192 16.14 107.663 16.588 108.009 17.176C108.354 17.7547 108.527 18.45 108.527 19.262C108.527 19.346 108.522 19.444 108.513 19.556C108.503 19.6587 108.494 19.7567 108.485 19.85H102.367V18.576H107.337L106.497 18.954C106.497 18.562 106.417 18.2213 106.259 17.932C106.1 17.6427 105.881 17.4187 105.601 17.26C105.321 17.092 104.994 17.008 104.621 17.008C104.247 17.008 103.916 17.092 103.627 17.26C103.347 17.4187 103.127 17.6473 102.969 17.946C102.81 18.2353 102.731 18.5807 102.731 18.982V19.318C102.731 19.7287 102.819 20.0927 102.997 20.41C103.183 20.718 103.44 20.956 103.767 21.124C104.103 21.2827 104.495 21.362 104.943 21.362C105.344 21.362 105.694 21.3013 105.993 21.18C106.301 21.0587 106.581 20.8767 106.833 20.634L107.995 21.894C107.649 22.286 107.215 22.5893 106.693 22.804C106.17 23.0093 105.568 23.112 104.887 23.112Z" fill="white"/>
</svg>
