<svg width="55" height="55" viewBox="0 0 55 55" fill="none" xmlns="http://www.w3.org/2000/svg">
<path d="M27.5 40.1042C30.3646 40.1042 32.7998 39.1012 34.8058 37.0952C36.8118 35.0892 37.814 32.6547 37.8125 29.7917C37.8125 26.9271 36.8095 24.4918 34.8035 22.4858C32.7976 20.4799 30.363 19.4776 27.5 19.4792C24.6354 19.4792 22.2001 20.4822 20.1942 22.4881C18.1882 24.4941 17.186 26.9286 17.1875 29.7917C17.1875 32.6563 18.1905 35.0915 20.1964 37.0975C22.2024 39.1035 24.6369 40.1057 27.5 40.1042ZM9.16665 48.125C7.90623 48.125 6.82686 47.6758 5.92852 46.7775C5.03019 45.8792 4.58179 44.8006 4.58332 43.5417V16.0417C4.58332 14.7813 5.03248 13.7019 5.93082 12.8035C6.82915 11.9052 7.90776 11.4568 9.16665 11.4583H16.3854L20.625 6.875H34.375L38.6146 11.4583H45.8333C47.0937 11.4583 48.1731 11.9075 49.0714 12.8058C49.9698 13.7042 50.4182 14.7828 50.4166 16.0417V43.5417C50.4166 44.8021 49.9675 45.8815 49.0691 46.7798C48.1708 47.6781 47.0922 48.1265 45.8333 48.125H9.16665Z" fill="white"/>
</svg>
